<?xml version="1.0" encoding="UTF-8" standalone="no"?>
<!DOCTYPE svg PUBLIC "-//W3C//DTD SVG 1.1//EN" "http://www.w3.org/Graphics/SVG/1.1/DTD/svg11.dtd">
<svg width="100%" height="100%" viewBox="0 0 12000 3000" version="1.1" xmlns="http://www.w3.org/2000/svg" xmlns:xlink="http://www.w3.org/1999/xlink" xml:space="preserve" xmlns:serif="http://www.serif.com/" style="fill-rule:evenodd;clip-rule:evenodd;stroke-linecap:round;stroke-linejoin:round;">
    <g transform="matrix(0.528024,0,0,0.528024,1566.470988,1490.731604)">
        <g transform="matrix(1,0,0,1,-2966.666667,-2858.333333)">
            <clipPath id="_clip1">
                <rect x="0" y="0" width="5933.333" height="5716.667"/>
            </clipPath>
            <g clip-path="url(#_clip1)">
                <g id="path155308" transform="matrix(4.166667,0,0,4.166667,0,0)">
                    <path d="M700.022,373.091L698.729,83.543C698.217,-31.193 509.882,-25.931 457.008,115.859C324.477,118.803 288.45,191.426 284.442,285.193C140.097,335.094 153.314,455.795 176.508,506.232C121.755,542.632 54.836,668.312 150.655,766.696C126.874,921.554 212.389,984.727 317.404,1000.661C312.723,1101.64 342.458,1170.387 446.02,1169.995C509.548,1267.916 696.206,1254.673 694.85,1096.962L692.911,871.399L752.372,840.376L754.957,1091.145C755.33,1127.357 769.651,1135.364 778.871,1145.435L974.704,1359.365C990.094,1376.178 1031.426,1363.009 1026.409,1329.635C1020.554,1290.688 1002.89,1255.244 994.093,1217.177C1234.233,1236.428 1273.686,1045.436 1260.374,976.749C1278.278,961.868 1438.535,877.914 1301.092,695.603C1341.452,641.328 1340.22,526.081 1257.789,495.892C1265.523,475.857 1325.451,334.289 1167.305,277.438C1163.413,205.866 1136.454,119.161 1001.203,116.506C952.246,-20.363 752.703,-39.938 753.019,82.251L753.665,332.374L700.021,373.092L700.022,373.091Z" style="fill:url(#_Linear2);fill-rule:nonzero;stroke:black;stroke-opacity:0;stroke-width:4.17px;"/>
                </g>
                <g id="path14" transform="matrix(4.166667,0,0,4.166667,0,0)">
                    <path d="M642.271,823.466L642.271,533.652L737.631,533.652L737.63,770.289L642.27,823.466L642.271,823.466Z" style="fill:white;fill-opacity:0.5;fill-rule:nonzero;stroke:white;stroke-width:2.08px;"/>
                </g>
                <g id="path14-1" transform="matrix(4.166667,0,0,4.166667,0,0)">
                    <path d="M782.244,744.259L782.244,428.126L877.406,428.126L877.405,686.253L782.243,744.259L782.244,744.259Z" style="fill:white;fill-opacity:0.5;fill-rule:nonzero;stroke:white;stroke-width:2.08px;stroke-linecap:butt;"/>
                </g>
                <g id="path14-1-6" transform="matrix(4.166667,0,0,4.166667,0,0)">
                    <path d="M922.1,655.32L922.1,327.639L1017.3,327.639L1017.299,581.587L922.099,655.321L922.1,655.32Z" style="fill:white;fill-opacity:0.5;fill-rule:nonzero;stroke:white;stroke-width:2.08px;stroke-linecap:butt;"/>
                </g>
                <g id="path14-1-9" transform="matrix(4.166667,0,0,4.166667,0,0)">
                    <path d="M1061.969,538.191L1061.969,228.639L1157.18,228.639L1157.179,440.629L1061.968,538.191L1061.969,538.191Z" style="fill:white;fill-opacity:0.5;fill-rule:nonzero;stroke:white;stroke-width:2.08px;stroke-linecap:butt;"/>
                </g>
                <g id="path6-4-28-2" transform="matrix(4.166667,0,0,4.166667,0,0)">
                    <path d="M497.567,145.304C484.878,145.304 472.909,153.117 468.27,165.706C465.398,173.517 465.738,181.97 469.238,189.526C472.732,197.076 478.962,202.816 486.767,205.688C487.134,205.821 487.507,205.867 487.874,205.989L487.874,226.301L487.41,226.301L487.41,498.257L430.997,470.604L430.997,258.088C432.147,257.71 433.323,257.449 434.439,256.932C441.984,253.438 447.729,247.214 450.601,239.403C453.479,231.592 453.13,223.13 449.641,215.575C446.152,208.031 439.931,202.288 432.12,199.421C424.326,196.56 415.867,196.89 408.3,200.373C400.75,203.867 395.005,210.089 392.138,217.894C389.26,225.711 389.601,234.172 393.09,241.722C396.59,249.266 402.814,255.02 410.619,257.876C410.991,258.02 411.362,258.063 411.734,258.185L411.734,482.615L487.409,519.708L487.409,632.973L322.272,632.973L284.951,556.834L85.521,556.834C85.398,556.462 85.356,556.083 85.212,555.711C82.356,547.905 76.602,541.682 69.058,538.182C61.508,534.693 53.047,534.36 45.23,537.238C37.424,540.105 31.211,545.842 27.717,553.392C24.234,560.959 23.896,569.426 26.757,577.22C29.624,585.031 35.367,591.252 42.911,594.741C50.467,598.23 58.928,598.579 66.739,595.701C74.55,592.829 80.774,587.083 84.268,579.539C84.785,578.422 85.054,577.247 85.432,576.097L272.94,576.097L312.531,652.236L487.409,652.236L487.409,698.248L256.46,698.248C256.338,697.876 256.284,697.497 256.151,697.125C250.229,681.019 232.294,672.727 216.177,678.644C200.06,684.577 191.774,702.518 197.679,718.634C200.557,726.456 206.302,732.674 213.857,736.163C221.401,739.652 229.871,739.99 237.677,737.123C245.488,734.245 251.704,728.511 255.198,720.961C255.715,719.839 255.984,718.669 256.362,717.519L487.409,717.519L487.409,756.606L418.838,790.216C418.77,810.189 418.701,828.568 418.635,845.457C244.806,865.464 77.502,828.766 79.369,706.134C59.842,804.474 172.025,914.819 418.472,884.422C418.373,907.005 418.282,926.152 418.195,942.243C389.309,945.556 362.471,946.772 338.328,945.791C217.849,940.898 1.962,880.541 43.976,691.779C-23.387,870.898 192.555,1005.154 319.985,1014.045C358.572,1016.737 396.041,1016.409 432.981,1014.802L438.1,1014.745L438.1,1014.509C454.593,1013.706 471.256,1013.303 487.408,1011.71L487.408,1077.579C478.641,1080.446 471.212,1087.113 467.795,1096.418C464.923,1104.224 465.261,1112.677 468.755,1120.222C472.249,1127.783 478.46,1133.534 486.276,1136.4C489.804,1137.7 493.422,1138.312 496.978,1138.312C509.667,1138.312 521.636,1130.499 526.275,1117.91C529.147,1110.099 528.807,1101.646 525.307,1094.09C521.813,1086.54 515.583,1080.792 507.778,1077.92C507.411,1077.787 507.038,1077.741 506.671,1077.619C506.654,1057.216 506.642,1034.224 506.646,1009.626C647.7,992.921 775.318,947.014 887.269,885.993L887.269,1136.392C878.502,1139.259 871.073,1145.926 867.656,1155.232C864.784,1163.038 865.122,1171.499 868.616,1179.044C872.11,1186.605 878.321,1192.348 886.137,1195.214C889.665,1196.514 893.283,1197.126 896.839,1197.126C909.528,1197.126 921.497,1189.313 926.136,1176.724C929.008,1168.913 928.668,1160.46 925.168,1152.904C921.674,1145.354 915.444,1139.614 907.639,1136.742C907.272,1136.609 906.891,1136.563 906.524,1136.441L906.524,875.26C922.285,866.284 937.73,857.022 952.837,847.501L952.845,847.501L974.248,857.991L974.248,1070.507C973.098,1070.885 971.922,1071.146 970.806,1071.663C963.262,1075.157 957.516,1081.381 954.644,1089.192C951.766,1097.003 952.115,1105.465 955.604,1113.02C959.093,1120.564 965.314,1126.307 973.125,1129.174C980.919,1132.035 989.378,1131.705 996.945,1128.222C1004.495,1124.728 1010.24,1118.515 1013.107,1110.709C1015.985,1102.892 1015.644,1094.431 1012.155,1086.881C1008.655,1079.337 1002.439,1073.574 994.634,1070.719C994.262,1070.574 993.883,1070.532 993.511,1070.41L993.511,845.98L971.774,835.327C1000.308,816.612 1027.61,797.028 1053.634,776.872L1085.315,841.504L1284.737,841.504C1284.859,841.876 1284.91,842.255 1285.054,842.627C1287.91,850.433 1293.664,856.648 1301.208,860.148C1308.758,863.637 1317.219,863.978 1325.036,861.1C1332.842,858.233 1339.055,852.488 1342.549,844.938C1346.032,837.371 1346.37,828.912 1343.509,821.118C1340.642,813.307 1334.891,807.086 1327.347,803.597C1319.791,800.108 1311.338,799.759 1303.527,802.637C1295.716,805.509 1289.492,811.255 1285.998,818.799C1285.481,819.916 1285.212,821.091 1284.834,822.241L1097.326,822.241L1069.437,765.364L1361.934,765.364C1362.056,765.731 1362.102,766.104 1362.235,766.471C1365.107,774.277 1370.847,780.506 1378.397,784C1385.953,787.5 1394.414,787.841 1402.225,784.968C1414.814,780.329 1422.627,768.36 1422.627,755.671C1422.627,752.115 1422.015,748.497 1420.715,744.969C1417.848,737.152 1412.098,730.942 1404.537,727.448C1396.993,723.954 1388.539,723.615 1380.733,726.488C1371.427,729.905 1364.76,737.334 1361.893,746.101L1091.865,746.101C1101.8,737.801 1111.528,729.43 1121.04,721.011C1311.086,552.822 1385.863,325.835 1305.35,187.45C1362.447,368.499 1169.086,561.87 979.886,706.151C834.985,816.65 655.693,893.3 506.684,926.927C506.697,907.65 506.713,888.085 506.733,868.602C553.465,857.794 604.037,842.485 658.458,821.93C891.57,733.885 1054.398,599.672 1152.623,477.594C1250.849,355.516 1294.054,269.878 1267.304,222.996C1283.692,253.089 1235.944,335.134 1135.81,452.667C1035.676,570.2 867.684,704.803 605.284,801.715C574.135,813.219 540.876,822.903 506.781,830.54C506.925,706.52 507.131,595.693 507.131,595.693L600.474,532.127L600.474,282.298C601.624,281.92 602.786,281.651 603.908,281.134C611.458,277.64 617.201,271.424 620.078,263.613C622.945,255.807 622.607,247.337 619.118,239.793C615.629,232.237 609.403,226.492 601.581,223.615C585.464,217.709 567.524,225.996 561.591,242.113C555.674,258.23 563.975,276.173 580.081,282.095C580.453,282.228 580.832,282.274 581.204,282.396L581.204,521.947L507.132,572.386L507.132,206.037C515.899,203.17 523.328,196.503 526.745,187.197C529.617,179.391 529.279,170.93 525.785,163.385C522.291,155.824 516.08,150.081 508.264,147.215C504.736,145.915 501.118,145.303 497.562,145.303L497.567,145.304ZM497.534,164.567C498.89,164.567 500.269,164.805 501.619,165.299C504.597,166.388 506.981,168.582 508.308,171.459C509.636,174.348 509.766,177.566 508.666,180.549C506.905,185.355 502.353,188.345 497.509,188.345C496.148,188.345 494.757,188.099 493.407,187.604C490.429,186.51 488.056,184.319 486.718,181.435C485.385,178.563 485.254,175.322 486.344,172.361C488.122,167.544 492.684,164.565 497.534,164.565L497.534,164.567ZM421.387,216.764C422.743,216.764 424.13,217.008 425.48,217.496C431.63,219.757 434.781,226.605 432.519,232.755C431.43,235.733 429.231,238.111 426.358,239.444C424.769,240.177 423.069,240.543 421.369,240.543C419.986,240.543 418.606,240.297 417.267,239.802C414.289,238.713 411.911,236.517 410.578,233.633C409.25,230.75 409.109,227.526 410.22,224.543C411.981,219.743 416.541,216.763 421.385,216.763L421.387,216.764ZM590.861,240.966C592.211,240.966 593.602,241.215 594.946,241.715C601.102,243.971 604.26,250.818 601.994,256.974C600.905,259.952 598.711,262.316 595.833,263.655C594.244,264.383 592.547,264.754 590.853,264.754C589.47,264.754 588.08,264.508 586.735,264.013C580.585,261.757 577.418,254.909 579.679,248.77C581.446,243.959 586.011,240.966 590.861,240.966ZM56.47,554.581C58.009,554.643 59.537,555.008 60.978,555.672C63.861,557.005 66.05,559.384 67.138,562.361C67.632,563.7 67.879,565.087 67.879,566.471C67.879,568.171 67.514,569.871 66.78,571.46C65.447,574.332 63.068,576.532 60.091,577.62C53.941,579.881 47.101,576.722 44.84,570.572C44.351,569.222 44.099,567.834 44.099,566.479C44.099,561.635 47.087,557.083 51.887,555.322C53.379,554.766 54.93,554.52 56.469,554.581L56.47,554.581ZM227.271,696.004C231.976,696.147 236.36,699.099 238.078,703.784C238.572,705.128 238.819,706.519 238.819,707.902C238.819,709.596 238.448,711.285 237.72,712.874C236.381,715.752 234.008,717.946 231.031,719.034C224.875,721.301 218.036,718.142 215.78,711.986C215.28,710.642 215.031,709.251 215.031,707.901C215.031,703.051 218.024,698.494 222.835,696.728C223.986,696.304 225.16,696.07 226.326,696.012C226.642,695.995 226.956,695.995 227.27,696.004L227.271,696.004ZM1391.96,743.847C1393.5,743.909 1395.032,744.274 1396.477,744.938C1399.355,746.266 1401.549,748.641 1402.637,751.619C1403.132,752.969 1403.369,754.349 1403.369,755.704C1403.369,760.554 1400.381,765.116 1395.565,766.894C1392.604,767.983 1389.363,767.853 1386.491,766.52C1383.608,765.181 1381.417,762.808 1380.322,759.831C1379.827,758.481 1379.59,757.091 1379.59,755.729C1379.59,750.885 1382.573,746.333 1387.378,744.572C1388.87,744.022 1390.42,743.786 1391.96,743.848L1391.96,743.847ZM487.411,778.059L487.411,834.643C471.063,837.905 454.581,840.694 438.103,842.984L438.103,802.229L487.411,778.059ZM1313.672,820.002C1318.73,819.746 1323.594,822.761 1325.431,827.758C1325.92,829.108 1326.163,830.504 1326.163,831.86C1326.163,836.704 1323.183,841.256 1318.383,843.017C1315.4,844.128 1312.176,843.987 1309.293,842.659C1306.41,841.326 1304.213,838.947 1303.124,835.97C1302.63,834.631 1302.392,833.252 1302.392,831.868C1302.392,830.168 1302.757,828.468 1303.491,826.879C1304.824,824.007 1307.203,821.807 1310.18,820.719C1311.333,820.295 1312.504,820.062 1313.671,820.003L1313.672,820.002ZM487.411,872.866L487.411,931.07C470.499,934.523 454.029,937.402 438.103,939.68L438.103,881.745C454.01,879.369 470.446,876.421 487.411,872.866ZM983.879,1088.053C985.262,1088.053 986.642,1088.299 987.981,1088.794C990.959,1089.883 993.337,1092.079 994.67,1094.963C995.998,1097.846 996.139,1101.07 995.028,1104.053C993.267,1108.853 988.707,1111.833 983.863,1111.833C982.507,1111.833 981.12,1111.589 979.77,1111.101C973.62,1108.84 970.469,1101.992 972.731,1095.842C973.82,1092.864 976.019,1090.486 978.891,1089.153C980.48,1088.42 982.18,1088.054 983.88,1088.054L983.879,1088.053ZM497.038,1095.271C498.399,1095.271 499.79,1095.509 501.14,1096.003C504.118,1097.097 506.491,1099.288 507.829,1102.172C509.162,1105.044 509.293,1108.285 508.203,1111.246C506.425,1116.063 501.863,1119.05 497.013,1119.05C495.657,1119.05 494.278,1118.812 492.928,1118.318C489.95,1117.229 487.566,1115.035 486.239,1112.158C484.911,1109.269 484.781,1106.043 485.881,1103.06C487.642,1098.254 492.194,1095.272 497.038,1095.272L497.038,1095.271ZM896.9,1154.084C898.261,1154.084 899.643,1154.33 900.993,1154.825L901.001,1154.825C903.979,1155.919 906.352,1158.11 907.69,1160.994C909.023,1163.866 909.153,1167.107 908.065,1170.068C906.287,1174.885 901.725,1177.864 896.875,1177.864C895.519,1177.864 894.14,1177.626 892.79,1177.132C889.812,1176.043 887.428,1173.849 886.101,1170.972C884.773,1168.083 884.643,1164.865 885.743,1161.882C887.504,1157.076 892.056,1154.086 896.9,1154.086L896.899,1154.086L896.9,1154.084Z" style="fill:rgb(229,229,229);fill-rule:nonzero;stroke:white;stroke-width:2.08px;stroke-linecap:butt;stroke-linejoin:miter;"/>
                </g>
            </g>
        </g>
    </g>
    <g transform="matrix(4.422295,0,0,4.422295,7780.720501,1629.731604)">
        <g transform="matrix(1,0,0,1,-907.791667,-226.0625)">
            <clipPath id="_clip3">
                <rect x="0" y="0" width="1815.583" height="452.125"/>
            </clipPath>
            <g clip-path="url(#_clip3)">
                <g id="Layer_1-2" transform="matrix(4.166667,0,0,4.166667,0,0)">
                    <g>
                        <g>
                            <path d="M237.82,33.07C235.61,31.6 233.19,30.41 230.56,29.51C227.93,28.61 225.29,27.91 222.63,27.4C219.97,26.89 217.53,26.41 215.32,25.96C213.11,25.51 211.33,24.95 209.98,24.28C208.63,23.61 207.96,22.7 207.96,21.54C207.96,20.77 208.23,20.07 208.78,19.42C209.32,18.78 210.24,18.27 211.52,17.88C212.8,17.49 214.53,17.3 216.71,17.3C219.66,17.3 222.69,17.72 225.8,18.55C228.91,19.38 232.13,20.63 235.46,22.3L242.29,5.86C238.76,3.87 234.79,2.4 230.37,1.44C225.95,0.48 221.46,-0 216.91,-0C209.99,-0 204.2,1.03 199.55,3.08C194.9,5.13 191.41,7.87 189.07,11.3C186.73,14.73 185.56,18.53 185.56,22.7C185.56,26.29 186.23,29.28 187.58,31.69C188.93,34.1 190.71,36.04 192.92,37.51C195.13,38.98 197.57,40.17 200.23,41.07C202.89,41.97 205.53,42.69 208.16,43.23C210.79,43.78 213.21,44.29 215.42,44.77C217.63,45.25 219.41,45.84 220.76,46.55C222.11,47.26 222.78,48.22 222.78,49.44C222.78,50.21 222.49,50.86 221.92,51.41C221.34,51.96 220.43,52.37 219.18,52.66C217.93,52.95 216.21,53.09 214.04,53.09C210.32,53.09 206.49,52.53 202.55,51.4C198.61,50.28 195.03,48.79 191.83,46.93L184.52,63.47C187.92,65.52 192.25,67.19 197.5,68.47C202.75,69.75 208.2,70.39 213.85,70.39C220.84,70.39 226.64,69.35 231.25,67.26C235.87,65.18 239.34,62.42 241.68,58.99C244.02,55.56 245.19,51.8 245.19,47.69C245.19,44.17 244.52,41.22 243.17,38.84C241.82,36.47 240.04,34.55 237.83,33.07L237.82,33.07Z" style="fill:url(#_Linear4);fill-rule:nonzero;"/>
                            <path d="M278.15,44.45L267.29,16.25L244.98,16.25L267.12,69.46C266.81,69.83 266.49,70.16 266.13,70.43C265.1,71.23 263.63,71.63 261.71,71.63C260.43,71.63 259.1,71.37 257.72,70.86C256.34,70.35 255.11,69.67 254.02,68.84L246.81,83.74C248.61,85.15 250.99,86.29 253.97,87.16C256.95,88.02 259.89,88.46 262.77,88.46C266.49,88.46 269.9,87.91 273.01,86.82C276.12,85.73 278.94,83.84 281.47,81.15C284,78.46 286.23,74.71 288.15,69.9L309.79,16.25L289.21,16.25L278.15,44.45Z" style="fill:url(#_Linear5);fill-rule:nonzero;"/>
                            <path d="M360.65,17.74C357.38,16.1 353.73,15.29 349.69,15.29C345.39,15.29 341.5,16.28 338.01,18.27C336.47,19.14 335.09,20.22 333.83,21.48L333.83,16.25L313.16,16.25L313.16,68.84L334.89,68.84L334.89,44.13C334.89,41.5 335.26,39.42 336,37.88C336.74,36.34 337.73,35.24 338.98,34.56C340.23,33.89 341.59,33.55 343.07,33.55C345.06,33.55 346.63,34.24 347.78,35.62C348.93,37 349.51,39.32 349.51,42.59L349.51,68.84L371.24,68.84L371.24,38.84C371.24,33.33 370.29,28.84 368.4,25.38C366.51,21.92 363.93,19.37 360.66,17.74L360.65,17.74Z" style="fill:url(#_Linear6);fill-rule:nonzero;"/>
                            <path d="M414.93,51.25C413.36,52.34 411.65,52.88 409.79,52.88C408.19,52.88 406.7,52.5 405.32,51.73C403.94,50.96 402.85,49.81 402.05,48.27C401.25,46.73 400.85,44.81 400.85,42.5C400.85,40.19 401.25,38.29 402.05,36.78C402.85,35.27 403.94,34.14 405.32,33.36C406.7,32.59 408.19,32.21 409.79,32.21C411.65,32.21 413.36,32.75 414.93,33.84C416.5,34.93 417.83,36.7 418.92,39.13L435.75,30.86C434.02,25.99 430.88,22.18 426.33,19.42C421.78,16.67 416.29,15.28 409.89,15.28C403.87,15.28 398.51,16.43 393.83,18.74C389.15,21.05 385.48,24.25 382.82,28.36C380.16,32.46 378.83,37.17 378.83,42.49C378.83,47.81 380.16,52.54 382.82,56.67C385.48,60.81 389.15,64.03 393.83,66.33C398.51,68.64 403.86,69.79 409.89,69.79C416.3,69.79 421.78,68.41 426.33,65.65C430.88,62.9 434.02,59.08 435.75,54.21L418.92,45.94C417.83,48.38 416.5,50.14 414.93,51.23L414.93,51.25Z" style="fill:url(#_Linear7);fill-rule:nonzero;"/>
                        </g>
                        <g>
                            <path d="M112.35,18.36C107.96,16.31 103.17,15.28 97.98,15.28C92.34,15.28 87.26,16.43 82.74,18.74C78.22,21.05 74.66,24.25 72.07,28.36C69.48,32.46 68.18,37.17 68.18,42.49C68.18,47.81 69.49,52.35 72.12,56.48C74.75,60.62 78.45,63.87 83.22,66.24C88,68.61 93.59,69.8 100,69.8C105.25,69.8 109.76,69.08 113.51,67.64C117.26,66.2 120.42,64.1 122.98,61.34L111.63,49.9C109.9,51.18 108.25,52.14 106.68,52.78C105.11,53.42 103.1,53.74 100.67,53.74C98.24,53.74 96.28,53.34 94.61,52.54C92.94,51.74 91.66,50.54 90.76,48.94C90.52,48.51 90.32,48.06 90.14,47.59L126.62,47.59C126.68,46.82 126.75,45.97 126.81,45.04C126.88,44.11 126.91,43.26 126.91,42.49C126.91,36.53 125.58,31.53 122.92,27.49C120.26,23.45 116.73,20.41 112.34,18.36L112.35,18.36ZM89.67,37.11C89.85,36.21 90.11,35.4 90.48,34.66C91.18,33.22 92.19,32.1 93.51,31.3C94.82,30.5 96.38,30.1 98.17,30.1C99.96,30.1 101.5,30.5 102.78,31.3C104.06,32.1 105.07,33.22 105.81,34.66C106.19,35.4 106.46,36.22 106.65,37.11L89.67,37.11Z" style="fill:url(#_Linear8);fill-rule:nonzero;"/>
                            <path d="M175.57,39.9C173.77,38.75 171.81,37.87 169.66,37.26C167.51,36.65 165.36,36.2 163.22,35.91C161.07,35.62 159.1,35.38 157.31,35.19C155.51,35 154.07,34.71 152.98,34.33C151.89,33.95 151.34,33.37 151.34,32.6C151.34,31.96 151.84,31.38 152.83,30.87C153.82,30.36 155.7,30.1 158.46,30.1C160.7,30.1 163.12,30.37 165.72,30.92C168.32,31.46 170.96,32.47 173.65,33.95L179.61,19.62C176.85,18.15 173.55,17.06 169.7,16.35C165.85,15.64 162.01,15.29 158.16,15.29C152.26,15.29 147.31,16.11 143.3,17.74C139.29,19.38 136.28,21.54 134.26,24.23C132.24,26.92 131.23,29.93 131.23,33.27C131.23,36.28 131.77,38.77 132.87,40.72C133.96,42.67 135.4,44.23 137.2,45.38C138.99,46.53 140.98,47.4 143.16,47.98C145.34,48.56 147.5,48.99 149.65,49.28C151.8,49.57 153.77,49.81 155.57,50C157.36,50.19 158.81,50.47 159.89,50.82C160.98,51.17 161.53,51.73 161.53,52.5C161.53,53.27 161.06,53.88 160.14,54.33C159.21,54.78 157.43,55 154.8,55C151.66,55 148.44,54.59 145.14,53.75C141.84,52.92 138.94,51.76 136.44,50.29L130.48,64.62C133.17,66.16 136.7,67.41 141.06,68.37C145.42,69.33 149.84,69.81 154.33,69.81C160.42,69.81 165.48,68.99 169.52,67.36C173.56,65.72 176.57,63.55 178.56,60.82C180.55,58.1 181.54,55.16 181.54,52.02C181.54,48.88 181,46.53 179.9,44.57C178.81,42.61 177.37,41.06 175.57,39.91L175.57,39.9Z" style="fill:url(#_Linear9);fill-rule:nonzero;"/>
                            <path d="M53.63,52.89L50.39,48.14C54.16,46.21 57.14,43.61 59.32,40.33C61.82,36.58 63.07,32.11 63.07,26.92C63.07,19.1 60.38,12.91 54.99,8.36C49.61,3.81 41.75,1.53 31.43,1.53L0,1.53L0,68.83L22.69,68.83L22.69,51.91L28.87,51.91L37.12,64.15L37.98,65.42L40.28,68.83L40.31,68.83L53.7,88.44L91.62,108.5L53.65,52.87L53.64,52.87L53.63,52.89ZM22.69,34.8L22.69,19.03L30.96,19.03C34.1,19.03 36.43,19.73 37.93,21.14C39.44,22.55 40.19,24.47 40.19,26.91C40.19,29.35 39.43,31.27 37.93,32.68C36.42,34.09 34.1,34.8 30.96,34.8L22.69,34.8Z" style="fill:url(#_Linear10);fill-rule:nonzero;"/>
                        </g>
                    </g>
                </g>
            </g>
        </g>
    </g>
    <defs>
        <linearGradient id="_Linear2" x1="0" y1="0" x2="1" y2="0" gradientUnits="userSpaceOnUse" gradientTransform="matrix(889.619025,-889.6191,889.6191,889.619025,284.452725,1128.766)"><stop offset="0" style="stop-color:rgb(5,25,55);stop-opacity:1"/><stop offset="0.2" style="stop-color:rgb(0,77,122);stop-opacity:1"/><stop offset="0.5" style="stop-color:rgb(0,135,158);stop-opacity:1"/><stop offset="0.75" style="stop-color:rgb(0,191,114);stop-opacity:1"/><stop offset="1" style="stop-color:rgb(168,235,18);stop-opacity:1"/></linearGradient>
        <linearGradient id="_Linear4" x1="0" y1="0" x2="1" y2="0" gradientUnits="userSpaceOnUse" gradientTransform="matrix(435.74,108.51,-27.018554,108.49751,0,0)"><stop offset="0" style="stop-color:rgb(2,61,102);stop-opacity:1"/><stop offset="1" style="stop-color:rgb(159,233,23);stop-opacity:1"/></linearGradient>
        <linearGradient id="_Linear5" x1="0" y1="0" x2="1" y2="0" gradientUnits="userSpaceOnUse" gradientTransform="matrix(435.74,108.51,-27.018554,108.49751,0,0)"><stop offset="0" style="stop-color:rgb(2,61,102);stop-opacity:1"/><stop offset="1" style="stop-color:rgb(159,233,23);stop-opacity:1"/></linearGradient>
        <linearGradient id="_Linear6" x1="0" y1="0" x2="1" y2="0" gradientUnits="userSpaceOnUse" gradientTransform="matrix(435.74,108.51,-27.018554,108.49751,0,0)"><stop offset="0" style="stop-color:rgb(2,61,102);stop-opacity:1"/><stop offset="1" style="stop-color:rgb(159,233,23);stop-opacity:1"/></linearGradient>
        <linearGradient id="_Linear7" x1="0" y1="0" x2="1" y2="0" gradientUnits="userSpaceOnUse" gradientTransform="matrix(435.74,108.51,-27.018554,108.49751,0,0)"><stop offset="0" style="stop-color:rgb(2,61,102);stop-opacity:1"/><stop offset="1" style="stop-color:rgb(159,233,23);stop-opacity:1"/></linearGradient>
        <linearGradient id="_Linear8" x1="0" y1="0" x2="1" y2="0" gradientUnits="userSpaceOnUse" gradientTransform="matrix(435.74,108.51,-27.018554,108.49751,0,0)"><stop offset="0" style="stop-color:rgb(2,61,102);stop-opacity:1"/><stop offset="1" style="stop-color:rgb(159,233,23);stop-opacity:1"/></linearGradient>
        <linearGradient id="_Linear9" x1="0" y1="0" x2="1" y2="0" gradientUnits="userSpaceOnUse" gradientTransform="matrix(435.74,108.51,-27.018554,108.49751,0,0)"><stop offset="0" style="stop-color:rgb(2,61,102);stop-opacity:1"/><stop offset="1" style="stop-color:rgb(159,233,23);stop-opacity:1"/></linearGradient>
        <linearGradient id="_Linear10" x1="0" y1="0" x2="1" y2="0" gradientUnits="userSpaceOnUse" gradientTransform="matrix(435.74,108.51,-27.018554,108.49751,0,0)"><stop offset="0" style="stop-color:rgb(2,61,102);stop-opacity:1"/><stop offset="1" style="stop-color:rgb(159,233,23);stop-opacity:1"/></linearGradient>
    </defs>
</svg>
