<?xml version="1.0" encoding="UTF-8" standalone="no"?><!DOCTYPE svg PUBLIC "-//W3C//DTD SVG 1.1//EN" "http://www.w3.org/Graphics/SVG/1.1/DTD/svg11.dtd"><svg width="100%" height="100%" viewBox="0 0 1424 1372" version="1.1" xmlns="http://www.w3.org/2000/svg" xmlns:xlink="http://www.w3.org/1999/xlink" xml:space="preserve" xmlns:serif="http://www.serif.com/" style="fill-rule:evenodd;clip-rule:evenodd;stroke-linecap:round;stroke-linejoin:round;"><path id="path155308" d="M700.022,373.091l-1.293,-289.548c-0.512,-114.736 -188.847,-109.474 -241.721,32.316c-132.531,2.944 -168.558,75.567 -172.566,169.334c-144.345,49.901 -131.128,170.602 -107.934,221.039c-54.753,36.4 -121.672,162.08 -25.853,260.464c-23.781,154.858 61.734,218.031 166.749,233.965c-4.681,100.979 25.054,169.726 128.616,169.334c63.528,97.921 250.186,84.678 248.83,-73.033l-1.939,-225.563l59.461,-31.023l2.585,250.769c0.373,36.212 14.694,44.219 23.914,54.29l195.833,213.93c15.39,16.813 56.722,3.644 51.705,-29.73c-5.855,-38.947 -23.519,-74.391 -32.316,-112.458c240.14,19.251 279.593,-171.741 266.281,-240.428c17.904,-14.881 178.161,-98.835 40.718,-281.146c40.36,-54.275 39.128,-169.522 -43.303,-199.711c7.734,-20.035 67.662,-161.603 -90.484,-218.454c-3.892,-71.572 -30.851,-158.277 -166.102,-160.932c-48.957,-136.869 -248.5,-156.444 -248.184,-34.255l0.646,250.123l-53.644,40.718Z" style="fill:url(#_Linear1);fill-rule:nonzero;stroke:#000;stroke-opacity:0;stroke-width:4.17px;"/><path id="path14" d="M642.271,823.466l0,-289.814l95.36,0l-0.001,236.637l-95.36,53.177Z" style="fill:#fff;fill-opacity:0.5;fill-rule:nonzero;stroke:#fff;stroke-width:2.08px;"/><path id="path14-1" d="M782.244,744.259l0,-316.133l95.162,0l-0.001,258.127l-95.162,58.006Z" style="fill:#fff;fill-opacity:0.5;fill-rule:nonzero;stroke:#fff;stroke-width:2.08px;stroke-linecap:butt;"/><path id="path14-1-6" d="M922.1,655.32l0,-327.681l95.2,0l-0.001,253.948l-95.2,73.734Z" style="fill:#fff;fill-opacity:0.5;fill-rule:nonzero;stroke:#fff;stroke-width:2.08px;stroke-linecap:butt;"/><path id="path14-1-9" d="M1061.969,538.191l0,-309.552l95.211,0l-0.001,211.99l-95.211,97.562Z" style="fill:#fff;fill-opacity:0.5;fill-rule:nonzero;stroke:#fff;stroke-width:2.08px;stroke-linecap:butt;"/><path id="path6-4-28-2" d="M497.567,145.304c-12.689,0 -24.658,7.813 -29.297,20.402c-2.872,7.811 -2.532,16.264 0.968,23.82c3.494,7.55 9.724,13.29 17.529,16.162c0.367,0.133 0.74,0.179 1.107,0.301l0,20.312l-0.464,0l0,271.956l-56.413,-27.653l0,-212.516c1.15,-0.378 2.326,-0.639 3.442,-1.156c7.545,-3.494 13.29,-9.718 16.162,-17.529c2.878,-7.811 2.529,-16.273 -0.96,-23.828c-3.489,-7.544 -9.71,-13.287 -17.521,-16.154c-7.794,-2.861 -16.253,-2.531 -23.82,0.952c-7.55,3.494 -13.295,9.716 -16.162,17.521c-2.878,7.817 -2.537,16.278 0.952,23.828c3.5,7.544 9.724,13.298 17.529,16.154c0.372,0.144 0.743,0.187 1.115,0.309l0,224.43l75.675,37.093l0,113.265l-165.137,0l-37.321,-76.139l-199.43,0c-0.123,-0.372 -0.165,-0.751 -0.309,-1.123c-2.856,-7.806 -8.61,-14.029 -16.154,-17.529c-7.55,-3.489 -16.011,-3.822 -23.828,-0.944c-7.806,2.867 -14.019,8.604 -17.513,16.154c-3.483,7.567 -3.821,16.034 -0.96,23.828c2.867,7.811 8.61,14.032 16.154,17.521c7.556,3.489 16.017,3.838 23.828,0.96c7.811,-2.872 14.035,-8.618 17.529,-16.162c0.517,-1.117 0.786,-2.292 1.164,-3.442l187.508,0l39.591,76.139l174.878,0l0,46.012l-230.949,0c-0.122,-0.372 -0.176,-0.751 -0.309,-1.123c-5.922,-16.106 -23.857,-24.398 -39.974,-18.481c-16.117,5.933 -24.403,23.874 -18.498,39.99c2.878,7.822 8.623,14.04 16.178,17.529c7.544,3.489 16.014,3.827 23.82,0.96c7.811,-2.878 14.027,-8.612 17.521,-16.162c0.517,-1.122 0.786,-2.292 1.164,-3.442l231.047,0l0,39.087l-68.571,33.61c-0.068,19.973 -0.137,38.352 -0.203,55.241c-173.829,20.007 -341.133,-16.691 -339.266,-139.323c-19.527,98.34 92.656,208.685 339.103,178.288c-0.099,22.583 -0.19,41.73 -0.277,57.821c-28.886,3.313 -55.724,4.529 -79.867,3.548c-120.479,-4.893 -336.366,-65.25 -294.352,-254.012c-67.363,179.119 148.579,313.375 276.009,322.266c38.587,2.692 76.056,2.364 112.996,0.757l5.119,-0.057l0,-0.236c16.493,-0.803 33.156,-1.206 49.308,-2.799l0,65.869c-8.767,2.867 -16.196,9.534 -19.613,18.839c-2.872,7.806 -2.534,16.259 0.96,23.804c3.494,7.561 9.705,13.312 17.521,16.178c3.528,1.3 7.146,1.912 10.702,1.912c12.689,0 24.658,-7.813 29.297,-20.402c2.872,-7.811 2.532,-16.264 -0.968,-23.82c-3.494,-7.55 -9.724,-13.298 -17.529,-16.17c-0.367,-0.133 -0.74,-0.179 -1.107,-0.301c-0.017,-20.403 -0.029,-43.395 -0.025,-67.993c141.054,-16.705 268.672,-62.612 380.623,-123.633l0,250.399c-8.767,2.867 -16.196,9.534 -19.613,18.84c-2.872,7.806 -2.534,16.267 0.96,23.812c3.494,7.561 9.705,13.304 17.521,16.17c3.528,1.3 7.146,1.912 10.702,1.912c12.689,0 24.658,-7.813 29.297,-20.402c2.872,-7.811 2.532,-16.264 -0.968,-23.82c-3.494,-7.55 -9.724,-13.29 -17.529,-16.162c-0.367,-0.133 -0.748,-0.179 -1.115,-0.301l0,-261.181c15.761,-8.976 31.206,-18.238 46.313,-27.759l0.008,0l21.403,10.49l0,212.516c-1.15,0.378 -2.326,0.639 -3.442,1.156c-7.544,3.494 -13.29,9.718 -16.162,17.529c-2.878,7.811 -2.529,16.273 0.96,23.828c3.489,7.544 9.71,13.287 17.521,16.154c7.794,2.861 16.253,2.531 23.82,-0.952c7.55,-3.494 13.295,-9.707 16.162,-17.513c2.878,-7.817 2.537,-16.278 -0.952,-23.828c-3.5,-7.544 -9.716,-13.307 -17.521,-16.162c-0.372,-0.145 -0.751,-0.187 -1.123,-0.309l0,-224.43l-21.737,-10.653c28.534,-18.715 55.836,-38.299 81.86,-58.455l31.681,64.632l199.422,0c0.122,0.372 0.173,0.751 0.317,1.123c2.856,7.806 8.61,14.021 16.154,17.521c7.55,3.489 16.011,3.83 23.828,0.952c7.806,-2.867 14.019,-8.612 17.513,-16.162c3.483,-7.567 3.821,-16.026 0.96,-23.82c-2.867,-7.811 -8.618,-14.032 -16.162,-17.521c-7.556,-3.489 -16.009,-3.838 -23.82,-0.96c-7.811,2.872 -14.035,8.618 -17.529,16.162c-0.517,1.117 -0.786,2.292 -1.164,3.442l-187.508,0l-27.889,-56.877l292.497,0c0.122,0.367 0.168,0.74 0.301,1.107c2.872,7.806 8.612,14.035 16.162,17.529c7.556,3.5 16.017,3.841 23.828,0.968c12.589,-4.639 20.402,-16.608 20.402,-29.297c0,-3.556 -0.612,-7.174 -1.912,-10.702c-2.867,-7.817 -8.617,-14.027 -16.178,-17.521c-7.544,-3.494 -15.998,-3.833 -23.804,-0.96c-9.306,3.417 -15.973,10.846 -18.84,19.613l-270.028,0c9.935,-8.3 19.663,-16.671 29.175,-25.09c190.046,-168.189 264.823,-395.176 184.31,-533.561c57.097,181.049 -136.264,374.42 -325.464,518.701c-144.901,110.499 -324.193,187.149 -473.202,220.776c0.013,-19.277 0.029,-38.842 0.049,-58.325c46.732,-10.808 97.304,-26.117 151.725,-46.672c233.112,-88.045 395.94,-222.258 494.165,-344.336c98.226,-122.078 141.431,-207.716 114.681,-254.598c16.388,30.093 -31.36,112.138 -131.494,229.671c-100.134,117.533 -268.126,252.136 -530.526,349.048c-31.149,11.504 -64.408,21.188 -98.503,28.825c0.144,-124.02 0.35,-234.847 0.35,-234.847l93.343,-63.566l0,-249.829c1.15,-0.378 2.312,-0.647 3.434,-1.164c7.55,-3.494 13.293,-9.71 16.17,-17.521c2.867,-7.806 2.529,-16.276 -0.96,-23.82c-3.489,-7.556 -9.715,-13.301 -17.537,-16.178c-16.117,-5.906 -34.057,2.381 -39.99,18.498c-5.917,16.117 2.384,34.06 18.49,39.982c0.372,0.133 0.751,0.179 1.123,0.301l0,239.551l-74.072,50.439l0,-366.349c8.767,-2.867 16.196,-9.534 19.613,-18.84c2.872,-7.806 2.534,-16.267 -0.96,-23.812c-3.494,-7.561 -9.705,-13.304 -17.521,-16.17c-3.528,-1.3 -7.146,-1.912 -10.702,-1.912Zm-0.033,19.263c1.356,0 2.735,0.238 4.085,0.732c2.978,1.089 5.362,3.283 6.689,6.16c1.328,2.889 1.458,6.107 0.358,9.09c-1.761,4.806 -6.313,7.796 -11.157,7.796c-1.361,0 -2.752,-0.246 -4.102,-0.741c-2.978,-1.094 -5.351,-3.285 -6.689,-6.169c-1.333,-2.872 -1.464,-6.113 -0.374,-9.074c1.778,-4.817 6.34,-7.796 11.19,-7.796Zm-76.147,52.197c1.356,0 2.743,0.244 4.093,0.732c6.15,2.261 9.301,9.109 7.039,15.259c-1.089,2.978 -3.288,5.356 -6.161,6.689c-1.589,0.733 -3.289,1.099 -4.989,1.099c-1.383,0 -2.763,-0.246 -4.102,-0.741c-2.978,-1.089 -5.356,-3.285 -6.689,-6.169c-1.328,-2.883 -1.469,-6.107 -0.358,-9.09c1.761,-4.8 6.321,-7.78 11.165,-7.78l-0,0Zm169.474,24.202c1.35,0 2.741,0.249 4.085,0.749c6.156,2.256 9.314,9.103 7.048,15.259c-1.089,2.978 -3.283,5.342 -6.161,6.681c-1.589,0.728 -3.286,1.099 -4.98,1.099c-1.383,0 -2.773,-0.246 -4.118,-0.741c-6.15,-2.256 -9.317,-9.104 -7.056,-15.243c1.767,-4.811 6.332,-7.804 11.182,-7.804Zm-534.391,313.615c1.539,0.062 3.067,0.427 4.508,1.091c2.883,1.333 5.072,3.712 6.16,6.689c0.494,1.339 0.741,2.726 0.741,4.11c0,1.7 -0.365,3.4 -1.099,4.989c-1.333,2.872 -3.712,5.072 -6.689,6.16c-6.15,2.261 -12.99,-0.898 -15.251,-7.048c-0.489,-1.35 -0.741,-2.738 -0.741,-4.093c0,-4.844 2.988,-9.396 7.788,-11.157c1.492,-0.556 3.043,-0.802 4.582,-0.741Zm170.801,141.423c4.705,0.143 9.089,3.095 10.807,7.78c0.494,1.344 0.741,2.735 0.741,4.118c0,1.694 -0.371,3.383 -1.099,4.972c-1.339,2.878 -3.712,5.072 -6.689,6.16c-6.156,2.267 -12.995,-0.892 -15.251,-7.048c-0.5,-1.344 -0.749,-2.735 -0.749,-4.085c0,-4.85 2.993,-9.407 7.804,-11.173c1.151,-0.424 2.325,-0.658 3.491,-0.716c0.316,-0.017 0.63,-0.017 0.944,-0.008l0,0Zm1164.689,47.843c1.54,0.062 3.072,0.427 4.517,1.091c2.878,1.328 5.072,3.703 6.16,6.681c0.495,1.35 0.732,2.73 0.732,4.085c0,4.85 -2.988,9.412 -7.804,11.19c-2.961,1.089 -6.202,0.959 -9.074,-0.374c-2.883,-1.339 -5.074,-3.712 -6.169,-6.689c-0.495,-1.35 -0.732,-2.74 -0.732,-4.102c0,-4.844 2.983,-9.396 7.788,-11.157c1.492,-0.55 3.042,-0.786 4.582,-0.724l-0,-0Zm-904.549,34.212l0,56.584c-16.348,3.262 -32.83,6.051 -49.308,8.341l0,-40.755l49.308,-24.17Zm826.261,41.943c5.058,-0.256 9.922,2.759 11.759,7.756c0.489,1.35 0.732,2.746 0.732,4.102c0,4.844 -2.98,9.396 -7.78,11.157c-2.983,1.111 -6.207,0.97 -9.09,-0.358c-2.883,-1.333 -5.08,-3.712 -6.169,-6.689c-0.494,-1.339 -0.732,-2.718 -0.732,-4.102c0,-1.7 0.365,-3.4 1.099,-4.989c1.333,-2.872 3.712,-5.072 6.689,-6.16c1.153,-0.424 2.324,-0.657 3.491,-0.716l0,-0Zm-826.261,52.865l0,58.203c-16.912,3.453 -33.382,6.332 -49.308,8.61l0,-57.935c15.907,-2.376 32.343,-5.324 49.308,-8.879Zm496.468,215.186c1.383,0 2.763,0.246 4.102,0.741c2.978,1.089 5.356,3.285 6.689,6.169c1.328,2.883 1.469,6.107 0.358,9.09c-1.761,4.8 -6.321,7.78 -11.165,7.78c-1.356,0 -2.743,-0.244 -4.093,-0.732c-6.15,-2.261 -9.301,-9.109 -7.039,-15.259c1.089,-2.978 3.288,-5.356 6.16,-6.689c1.589,-0.733 3.289,-1.099 4.989,-1.099l0,-0Zm-486.841,7.218c1.361,0 2.752,0.238 4.102,0.732c2.978,1.094 5.351,3.285 6.689,6.169c1.333,2.872 1.464,6.113 0.374,9.074c-1.778,4.817 -6.34,7.804 -11.19,7.804c-1.356,0 -2.735,-0.238 -4.085,-0.732c-2.978,-1.089 -5.362,-3.283 -6.689,-6.16c-1.328,-2.889 -1.458,-6.115 -0.358,-9.098c1.761,-4.806 6.313,-7.788 11.157,-7.788Zm399.862,58.813c1.361,0 2.743,0.246 4.093,0.741l0.008,0c2.978,1.094 5.351,3.285 6.689,6.169c1.333,2.872 1.463,6.113 0.375,9.074c-1.778,4.817 -6.34,7.796 -11.19,7.796c-1.356,0 -2.735,-0.238 -4.085,-0.732c-2.978,-1.089 -5.362,-3.283 -6.689,-6.16c-1.328,-2.889 -1.458,-6.107 -0.358,-9.09c1.761,-4.806 6.313,-7.796 11.157,-7.796l-0.001,-0Z" style="fill:#e5e5e5;fill-rule:nonzero;stroke:#fff;stroke-width:2.08px;stroke-linecap:butt;stroke-linejoin:miter;"/><defs><linearGradient id="_Linear1" x1="0" y1="0" x2="1" y2="0" gradientUnits="userSpaceOnUse" gradientTransform="matrix(889.619025,-889.6191,889.6191,889.619025,284.452725,1128.766)"><stop offset="0" style="stop-color:#051937;stop-opacity:1"/><stop offset="0.2" style="stop-color:#004d7a;stop-opacity:1"/><stop offset="0.5" style="stop-color:#00879e;stop-opacity:1"/><stop offset="0.75" style="stop-color:#00bf72;stop-opacity:1"/><stop offset="1" style="stop-color:#a8eb12;stop-opacity:1"/></linearGradient></defs></svg>