<?xml version="1.0" encoding="UTF-8"?>
<svg xmlns="http://www.w3.org/2000/svg" viewBox="0 0 435.74 108.51">
  <defs>
    <style>
      .cls-1 {
        fill: #e64c3c;
      }

      .cls-2 {
        fill: #2880ba;
      }
    </style>
  </defs>
  <g id="Layer_1-2" data-name="Layer 1">
    <g>
      <g>
        <path class="cls-2" d="M237.82,33.07c-2.21-1.47-4.63-2.66-7.26-3.56-2.63-.9-5.27-1.6-7.93-2.11-2.66-.51-5.1-.99-7.31-1.44-2.21-.45-3.99-1.01-5.34-1.68-1.35-.67-2.02-1.58-2.02-2.74,0-.77.27-1.47.82-2.12.54-.64,1.46-1.15,2.74-1.54,1.28-.39,3.01-.58,5.19-.58,2.95,0,5.98.42,9.09,1.25,3.11.83,6.33,2.08,9.66,3.75l6.83-16.44c-3.53-1.99-7.5-3.46-11.92-4.42-4.42-.96-8.91-1.44-13.46-1.44-6.92,0-12.71,1.03-17.36,3.08-4.65,2.05-8.14,4.79-10.48,8.22-2.34,3.43-3.51,7.23-3.51,11.4,0,3.59.67,6.58,2.02,8.99,1.35,2.41,3.13,4.35,5.34,5.82,2.21,1.47,4.65,2.66,7.31,3.56,2.66.9,5.3,1.62,7.93,2.16,2.63.55,5.05,1.06,7.26,1.54,2.21.48,3.99,1.07,5.34,1.78,1.35.71,2.02,1.67,2.02,2.89,0,.77-.29,1.42-.86,1.97-.58.55-1.49.96-2.74,1.25-1.25.29-2.97.43-5.14.43-3.72,0-7.55-.56-11.49-1.69-3.94-1.12-7.52-2.61-10.72-4.47l-7.31,16.54c3.4,2.05,7.73,3.72,12.98,5,5.25,1.28,10.7,1.92,16.35,1.92,6.99,0,12.79-1.04,17.4-3.13,4.62-2.08,8.09-4.84,10.43-8.27,2.34-3.43,3.51-7.19,3.51-11.3,0-3.52-.67-6.47-2.02-8.85-1.35-2.37-3.13-4.29-5.34-5.77Z"/>
        <path class="cls-2" d="M278.15,44.45l-10.86-28.2h-22.31l22.14,53.21c-.31.37-.63.7-.99.97-1.03.8-2.5,1.2-4.42,1.2-1.28,0-2.61-.26-3.99-.77-1.38-.51-2.61-1.19-3.7-2.02l-7.21,14.9c1.8,1.41,4.18,2.55,7.16,3.42,2.98.86,5.92,1.3,8.8,1.3,3.72,0,7.13-.55,10.24-1.64,3.11-1.09,5.93-2.98,8.46-5.67,2.53-2.69,4.76-6.44,6.68-11.25l21.64-53.65h-20.58l-11.06,28.2Z"/>
        <path class="cls-2" d="M360.65,17.74c-3.27-1.64-6.92-2.45-10.96-2.45-4.3,0-8.19.99-11.68,2.98-1.54.87-2.92,1.95-4.18,3.21v-5.23h-20.67v52.59h21.73v-24.71c0-2.63.37-4.71,1.11-6.25.74-1.54,1.73-2.64,2.98-3.32,1.25-.67,2.61-1.01,4.09-1.01,1.99,0,3.56.69,4.71,2.07,1.15,1.38,1.73,3.7,1.73,6.97v26.25h21.73v-30c0-5.51-.95-10-2.84-13.46-1.89-3.46-4.47-6.01-7.74-7.64Z"/>
        <path class="cls-2" d="M414.93,51.25c-1.57,1.09-3.28,1.63-5.14,1.63-1.6,0-3.09-.38-4.47-1.15-1.38-.77-2.47-1.92-3.27-3.46-.8-1.54-1.2-3.46-1.2-5.77s.4-4.21,1.2-5.72c.8-1.51,1.89-2.64,3.27-3.42,1.38-.77,2.87-1.15,4.47-1.15,1.86,0,3.57.54,5.14,1.63,1.57,1.09,2.9,2.86,3.99,5.29l16.83-8.27c-1.73-4.87-4.87-8.68-9.42-11.44-4.55-2.75-10.04-4.14-16.44-4.14-6.02,0-11.38,1.15-16.06,3.46-4.68,2.31-8.35,5.51-11.01,9.62-2.66,4.1-3.99,8.81-3.99,14.13s1.33,10.05,3.99,14.18c2.66,4.14,6.33,7.36,11.01,9.66,4.68,2.31,10.03,3.46,16.06,3.46,6.41,0,11.89-1.38,16.44-4.14,4.55-2.75,7.69-6.57,9.42-11.44l-16.83-8.27c-1.09,2.44-2.42,4.2-3.99,5.29Z"/>
      </g>
      <g>
        <path class="cls-1" d="M112.35,18.36c-4.39-2.05-9.18-3.08-14.37-3.08-5.64,0-10.72,1.15-15.24,3.46-4.52,2.31-8.08,5.51-10.67,9.62-2.59,4.1-3.89,8.81-3.89,14.13s1.31,9.86,3.94,13.99c2.63,4.14,6.33,7.39,11.1,9.76,4.78,2.37,10.37,3.56,16.78,3.56,5.25,0,9.76-.72,13.51-2.16,3.75-1.44,6.91-3.54,9.47-6.3l-11.35-11.44c-1.73,1.28-3.38,2.24-4.95,2.88-1.57.64-3.58.96-6.01.96s-4.39-.4-6.06-1.2c-1.67-.8-2.95-2-3.85-3.6-.24-.43-.44-.88-.62-1.35h36.48c.06-.77.13-1.62.19-2.55.07-.93.1-1.78.1-2.55,0-5.96-1.33-10.96-3.99-15-2.66-4.04-6.19-7.08-10.58-9.13ZM89.67,37.11c.18-.9.44-1.71.81-2.45.7-1.44,1.71-2.56,3.03-3.36,1.31-.8,2.87-1.2,4.66-1.2s3.33.4,4.61,1.2c1.28.8,2.29,1.92,3.03,3.36.38.74.65,1.56.84,2.45h-16.98Z"/>
        <path class="cls-1" d="M175.57,39.9c-1.8-1.15-3.76-2.03-5.91-2.64-2.15-.61-4.3-1.06-6.44-1.35-2.15-.29-4.12-.53-5.91-.72-1.8-.19-3.24-.48-4.33-.86-1.09-.38-1.64-.96-1.64-1.73,0-.64.5-1.22,1.49-1.73.99-.51,2.87-.77,5.63-.77,2.24,0,4.66.27,7.26.82,2.6.54,5.24,1.55,7.93,3.03l5.96-14.33c-2.76-1.47-6.06-2.56-9.91-3.27-3.85-.71-7.69-1.06-11.54-1.06-5.9,0-10.85.82-14.86,2.45-4.01,1.64-7.02,3.8-9.04,6.49-2.02,2.69-3.03,5.7-3.03,9.04,0,3.01.54,5.5,1.64,7.45,1.09,1.95,2.53,3.51,4.33,4.66,1.79,1.15,3.78,2.02,5.96,2.6,2.18.58,4.34,1.01,6.49,1.3,2.15.29,4.12.53,5.92.72,1.79.19,3.24.47,4.32.82,1.09.35,1.64.91,1.64,1.68s-.47,1.38-1.39,1.83c-.93.45-2.71.67-5.34.67-3.14,0-6.36-.41-9.66-1.25-3.3-.83-6.2-1.99-8.7-3.46l-5.96,14.33c2.69,1.54,6.22,2.79,10.58,3.75,4.36.96,8.78,1.44,13.27,1.44,6.09,0,11.15-.82,15.19-2.45,4.04-1.64,7.05-3.81,9.04-6.54,1.99-2.72,2.98-5.66,2.98-8.8s-.54-5.49-1.64-7.45c-1.09-1.96-2.53-3.51-4.33-4.66Z"/>
        <path class="cls-1" d="M53.63,52.89l-3.24-4.75c3.77-1.93,6.75-4.53,8.93-7.81,2.5-3.75,3.75-8.22,3.75-13.41,0-7.82-2.69-14.01-8.08-18.56-5.38-4.55-13.24-6.83-23.56-6.83H0v67.3h22.69v-16.92h6.18l8.25,12.24h0s.86,1.27.86,1.27l2.3,3.41h.03l13.39,19.61,37.92,20.06-37.97-55.63h-.01ZM22.69,34.8v-15.77h8.27c3.14,0,5.47.7,6.97,2.11,1.51,1.41,2.26,3.33,2.26,5.77s-.76,4.36-2.26,5.77c-1.51,1.41-3.83,2.12-6.97,2.12h-8.27Z"/>
      </g>
    </g>
  </g>
</svg>