<?xml version="1.0" encoding="UTF-8" standalone="no"?>
<svg
   id="Layer_2"
   data-name="Layer 2"
   viewBox="0 0 450.00001 120.00001"
   version="1.1"
   sodipodi:docname="logo.svg"
   width="450"
   height="120"
   inkscape:version="1.4.2 (f4327f4, 2025-05-13)"
   xmlns:inkscape="http://www.inkscape.org/namespaces/inkscape"
   xmlns:sodipodi="http://sodipodi.sourceforge.net/DTD/sodipodi-0.dtd"
   xmlns="http://www.w3.org/2000/svg"
   xmlns:svg="http://www.w3.org/2000/svg">
  <sodipodi:namedview
     id="namedview8"
     pagecolor="#ffffff"
     bordercolor="#000000"
     borderopacity="0.25"
     inkscape:showpageshadow="2"
     inkscape:pageopacity="0.0"
     inkscape:pagecheckerboard="0"
     inkscape:deskcolor="#d1d1d1"
     inkscape:zoom="3.32"
     inkscape:cx="158.28313"
     inkscape:cy="58.885542"
     inkscape:window-width="1920"
     inkscape:window-height="1009"
     inkscape:window-x="1072"
     inkscape:window-y="-8"
     inkscape:window-maximized="1"
     inkscape:current-layer="Layer_1-2" />
  <defs
     id="defs1">
    <style
       id="style1">
      .cls-1 {
        fill: #e64c3c;
      }

      .cls-2 {
        fill: #2880ba;
      }
    </style>
  </defs>
  <g
     id="Layer_1-2"
     data-name="Layer 1"
     transform="translate(7.125,5.75)">
    <g
       id="g4"
       transform="translate(0,10.02)">
      <path
         class="cls-2"
         d="m 237.82,33.07 c -2.21,-1.47 -4.63,-2.66 -7.26,-3.56 -2.63,-0.9 -5.27,-1.6 -7.93,-2.11 -2.66,-0.51 -5.1,-0.99 -7.31,-1.44 -2.21,-0.45 -3.99,-1.01 -5.34,-1.68 -1.35,-0.67 -2.02,-1.58 -2.02,-2.74 0,-0.77 0.27,-1.47 0.82,-2.12 0.54,-0.64 1.46,-1.15 2.74,-1.54 1.28,-0.39 3.01,-0.58 5.19,-0.58 2.95,0 5.98,0.42 9.09,1.25 3.11,0.83 6.33,2.08 9.66,3.75 L 242.29,5.86 C 238.76,3.87 234.79,2.4 230.37,1.44 225.95,0.48 221.46,0 216.91,0 c -6.92,0 -12.71,1.03 -17.36,3.08 -4.65,2.05 -8.14,4.79 -10.48,8.22 -2.34,3.43 -3.51,7.23 -3.51,11.4 0,3.59 0.67,6.58 2.02,8.99 1.35,2.41 3.13,4.35 5.34,5.82 2.21,1.47 4.65,2.66 7.31,3.56 2.66,0.9 5.3,1.62 7.93,2.16 2.63,0.55 5.05,1.06 7.26,1.54 2.21,0.48 3.99,1.07 5.34,1.78 1.35,0.71 2.02,1.67 2.02,2.89 0,0.77 -0.29,1.42 -0.86,1.97 -0.58,0.55 -1.49,0.96 -2.74,1.25 -1.25,0.29 -2.97,0.43 -5.14,0.43 -3.72,0 -7.55,-0.56 -11.49,-1.69 -3.94,-1.12 -7.52,-2.61 -10.72,-4.47 l -7.31,16.54 c 3.4,2.05 7.73,3.72 12.98,5 5.25,1.28 10.7,1.92 16.35,1.92 6.99,0 12.79,-1.04 17.4,-3.13 4.62,-2.08 8.09,-4.84 10.43,-8.27 2.34,-3.43 3.51,-7.19 3.51,-11.3 0,-3.52 -0.67,-6.47 -2.02,-8.85 -1.35,-2.37 -3.13,-4.29 -5.34,-5.77 z"
         id="path1" />
      <path
         class="cls-2"
         d="m 278.15,44.45 -10.86,-28.2 h -22.31 l 22.14,53.21 c -0.31,0.37 -0.63,0.7 -0.99,0.97 -1.03,0.8 -2.5,1.2 -4.42,1.2 -1.28,0 -2.61,-0.26 -3.99,-0.77 -1.38,-0.51 -2.61,-1.19 -3.7,-2.02 l -7.21,14.9 c 1.8,1.41 4.18,2.55 7.16,3.42 2.98,0.86 5.92,1.3 8.8,1.3 3.72,0 7.13,-0.55 10.24,-1.64 3.11,-1.09 5.93,-2.98 8.46,-5.67 2.53,-2.69 4.76,-6.44 6.68,-11.25 l 21.64,-53.65 h -20.58 z"
         id="path2" />
      <path
         class="cls-2"
         d="m 360.65,17.74 c -3.27,-1.64 -6.92,-2.45 -10.96,-2.45 -4.3,0 -8.19,0.99 -11.68,2.98 -1.54,0.87 -2.92,1.95 -4.18,3.21 v -5.23 h -20.67 v 52.59 h 21.73 V 44.13 c 0,-2.63 0.37,-4.71 1.11,-6.25 0.74,-1.54 1.73,-2.64 2.98,-3.32 1.25,-0.67 2.61,-1.01 4.09,-1.01 1.99,0 3.56,0.69 4.71,2.07 1.15,1.38 1.73,3.7 1.73,6.97 v 26.25 h 21.73 v -30 c 0,-5.51 -0.95,-10 -2.84,-13.46 -1.89,-3.46 -4.47,-6.01 -7.74,-7.64 z"
         id="path3" />
      <path
         class="cls-2"
         d="m 414.93,51.25 c -1.57,1.09 -3.28,1.63 -5.14,1.63 -1.6,0 -3.09,-0.38 -4.47,-1.15 -1.38,-0.77 -2.47,-1.92 -3.27,-3.46 -0.8,-1.54 -1.2,-3.46 -1.2,-5.77 0,-2.31 0.4,-4.21 1.2,-5.72 0.8,-1.51 1.89,-2.64 3.27,-3.42 1.38,-0.77 2.87,-1.15 4.47,-1.15 1.86,0 3.57,0.54 5.14,1.63 1.57,1.09 2.9,2.86 3.99,5.29 l 16.83,-8.27 c -1.73,-4.87 -4.87,-8.68 -9.42,-11.44 -4.55,-2.75 -10.04,-4.14 -16.44,-4.14 -6.02,0 -11.38,1.15 -16.06,3.46 -4.68,2.31 -8.35,5.51 -11.01,9.62 -2.66,4.1 -3.99,8.81 -3.99,14.13 0,5.32 1.33,10.05 3.99,14.18 2.66,4.14 6.33,7.36 11.01,9.66 4.68,2.31 10.03,3.46 16.06,3.46 6.41,0 11.89,-1.38 16.44,-4.14 4.55,-2.75 7.69,-6.57 9.42,-11.44 l -16.83,-8.27 c -1.09,2.44 -2.42,4.2 -3.99,5.29 z"
         id="path4" />
    </g>
    <g
       id="g7"
       transform="translate(0,8.235)">
      <path
         class="cls-1"
         d="m 112.35,18.36 c -4.39,-2.05 -9.18,-3.08 -14.37,-3.08 -5.64,0 -10.72,1.15 -15.24,3.46 -4.52,2.31 -8.08,5.51 -10.67,9.62 -2.59,4.1 -3.89,8.81 -3.89,14.13 0,5.32 1.31,9.86 3.94,13.99 2.63,4.14 6.33,7.39 11.1,9.76 4.78,2.37 10.37,3.56 16.78,3.56 5.25,0 9.76,-0.72 13.51,-2.16 3.75,-1.44 6.91,-3.54 9.47,-6.3 L 111.63,49.9 c -1.73,1.28 -3.38,2.24 -4.95,2.88 -1.57,0.64 -3.58,0.96 -6.01,0.96 -2.43,0 -4.39,-0.4 -6.06,-1.2 -1.67,-0.8 -2.95,-2 -3.85,-3.6 -0.24,-0.43 -0.44,-0.88 -0.62,-1.35 h 36.48 c 0.06,-0.77 0.13,-1.62 0.19,-2.55 0.07,-0.93 0.1,-1.78 0.1,-2.55 0,-5.96 -1.33,-10.96 -3.99,-15 -2.66,-4.04 -6.19,-7.08 -10.58,-9.13 z M 89.67,37.11 c 0.18,-0.9 0.44,-1.71 0.81,-2.45 0.7,-1.44 1.71,-2.56 3.03,-3.36 1.31,-0.8 2.87,-1.2 4.66,-1.2 1.79,0 3.33,0.4 4.61,1.2 1.28,0.8 2.29,1.92 3.03,3.36 0.38,0.74 0.65,1.56 0.84,2.45 z"
         id="path5" />
      <path
         class="cls-1"
         d="m 175.57,39.9 c -1.8,-1.15 -3.76,-2.03 -5.91,-2.64 -2.15,-0.61 -4.3,-1.06 -6.44,-1.35 -2.15,-0.29 -4.12,-0.53 -5.91,-0.72 -1.8,-0.19 -3.24,-0.48 -4.33,-0.86 -1.09,-0.38 -1.64,-0.96 -1.64,-1.73 0,-0.64 0.5,-1.22 1.49,-1.73 0.99,-0.51 2.87,-0.77 5.63,-0.77 2.24,0 4.66,0.27 7.26,0.82 2.6,0.54 5.24,1.55 7.93,3.03 l 5.96,-14.33 c -2.76,-1.47 -6.06,-2.56 -9.91,-3.27 -3.85,-0.71 -7.69,-1.06 -11.54,-1.06 -5.9,0 -10.85,0.82 -14.86,2.45 -4.01,1.64 -7.02,3.8 -9.04,6.49 -2.02,2.69 -3.03,5.7 -3.03,9.04 0,3.01 0.54,5.5 1.64,7.45 1.09,1.95 2.53,3.51 4.33,4.66 1.79,1.15 3.78,2.02 5.96,2.6 2.18,0.58 4.34,1.01 6.49,1.3 2.15,0.29 4.12,0.53 5.92,0.72 1.79,0.19 3.24,0.47 4.32,0.82 1.09,0.35 1.64,0.91 1.64,1.68 0,0.77 -0.47,1.38 -1.39,1.83 -0.93,0.45 -2.71,0.67 -5.34,0.67 -3.14,0 -6.36,-0.41 -9.66,-1.25 -3.3,-0.83 -6.2,-1.99 -8.7,-3.46 l -5.96,14.33 c 2.69,1.54 6.22,2.79 10.58,3.75 4.36,0.96 8.78,1.44 13.27,1.44 6.09,0 11.15,-0.82 15.19,-2.45 4.04,-1.64 7.05,-3.81 9.04,-6.54 1.99,-2.72 2.98,-5.66 2.98,-8.8 0,-3.14 -0.54,-5.49 -1.64,-7.45 -1.09,-1.96 -2.53,-3.51 -4.33,-4.66 z"
         id="path6" />
      <path
         class="cls-1"
         d="m 50.39,48.14 c 3.77,-1.93 6.75,-4.53 8.93,-7.81 2.5,-3.75 3.75,-8.22 3.75,-13.41 C 63.07,19.1 60.38,12.91 54.99,8.36 49.61,3.81 41.75,1.53 31.43,1.53 H 0 v 67.3 H 22.69 V 51.91 h 6.18 c 5.486862,8.263922 9.265446,13.139357 16.83,24.53 L 83.62,90.5 C 63.881697,67.98621 64.409959,68.073879 50.39,48.14 Z M 22.69,34.8 V 19.03 h 8.27 c 3.14,0 5.47,0.7 6.97,2.11 1.51,1.41 2.26,3.33 2.26,5.77 0,2.44 -0.76,4.36 -2.26,5.77 -1.51,1.41 -3.83,2.12 -6.97,2.12 z"
         id="path7"
         sodipodi:nodetypes="ccscsccccccccccscscsc" />
    </g>
  </g>
</svg>
